<mxfile host="Electron" agent="Mozilla/5.0 (Macintosh; Intel Mac OS X 10_15_7) AppleWebKit/537.36 (KHTML, like Gecko) draw.io/24.7.8 Chrome/128.0.6613.36 Electron/32.0.1 Safari/537.36" version="24.7.8">
  <diagram name="Page-1" id="8XBNj0Sf-Auha33jIx6D">
    <mxGraphModel dx="984" dy="718" grid="1" gridSize="10" guides="1" tooltips="1" connect="1" arrows="1" fold="1" page="1" pageScale="1" pageWidth="850" pageHeight="1100" math="0" shadow="0">
      <root>
        <mxCell id="0" />
        <mxCell id="1" parent="0" />
        <mxCell id="YA0dYZ4zkgPmEPCqmKWG-41" value="" style="rounded=1;whiteSpace=wrap;html=1;arcSize=11;sketch=1;curveFitting=1;jiggle=2;" vertex="1" parent="1">
          <mxGeometry x="660" y="210" width="190" height="360" as="geometry" />
        </mxCell>
        <mxCell id="YA0dYZ4zkgPmEPCqmKWG-26" style="edgeStyle=orthogonalEdgeStyle;rounded=0;orthogonalLoop=1;jettySize=auto;html=1;exitX=0.5;exitY=1;exitDx=0;exitDy=0;entryX=0;entryY=0.5;entryDx=0;entryDy=0;" edge="1" parent="1" source="YA0dYZ4zkgPmEPCqmKWG-1" target="YA0dYZ4zkgPmEPCqmKWG-12">
          <mxGeometry relative="1" as="geometry" />
        </mxCell>
        <mxCell id="YA0dYZ4zkgPmEPCqmKWG-1" value="Prevent" style="rounded=1;whiteSpace=wrap;html=1;sketch=1;curveFitting=1;jiggle=2;fontFamily=Gloria Hallelujah;fontSource=https%3A%2F%2Ffonts.googleapis.com%2Fcss%3Ffamily%3DGloria%2BHallelujah;fontSize=16;" vertex="1" parent="1">
          <mxGeometry x="120" y="230" width="150" height="80" as="geometry" />
        </mxCell>
        <mxCell id="YA0dYZ4zkgPmEPCqmKWG-27" style="edgeStyle=orthogonalEdgeStyle;rounded=0;orthogonalLoop=1;jettySize=auto;html=1;exitX=0.5;exitY=1;exitDx=0;exitDy=0;entryX=1;entryY=0.5;entryDx=0;entryDy=0;" edge="1" parent="1" source="YA0dYZ4zkgPmEPCqmKWG-2" target="YA0dYZ4zkgPmEPCqmKWG-15">
          <mxGeometry relative="1" as="geometry" />
        </mxCell>
        <mxCell id="YA0dYZ4zkgPmEPCqmKWG-34" style="edgeStyle=orthogonalEdgeStyle;rounded=0;orthogonalLoop=1;jettySize=auto;html=1;exitX=1;exitY=0.5;exitDx=0;exitDy=0;entryX=0;entryY=0.5;entryDx=0;entryDy=0;" edge="1" parent="1" source="YA0dYZ4zkgPmEPCqmKWG-2" target="YA0dYZ4zkgPmEPCqmKWG-3">
          <mxGeometry relative="1" as="geometry" />
        </mxCell>
        <mxCell id="YA0dYZ4zkgPmEPCqmKWG-2" value="XDR&lt;div&gt;Pro&lt;br&gt;(endpoint)&lt;/div&gt;" style="rounded=1;whiteSpace=wrap;html=1;sketch=1;curveFitting=1;jiggle=2;fontFamily=Gloria Hallelujah;fontSource=https%3A%2F%2Ffonts.googleapis.com%2Fcss%3Ffamily%3DGloria%2BHallelujah;fontSize=16;fillColor=#fff2cc;gradientColor=#ffd966;strokeColor=#d6b656;fontColor=#000000;" vertex="1" parent="1">
          <mxGeometry x="300" y="230" width="150" height="80" as="geometry" />
        </mxCell>
        <mxCell id="YA0dYZ4zkgPmEPCqmKWG-3" value="XDR&lt;div&gt;Pro&lt;/div&gt;&lt;div&gt;(GB)&lt;/div&gt;" style="rounded=1;whiteSpace=wrap;html=1;sketch=1;curveFitting=1;jiggle=2;fontFamily=Gloria Hallelujah;fontSource=https%3A%2F%2Ffonts.googleapis.com%2Fcss%3Ffamily%3DGloria%2BHallelujah;fontSize=16;" vertex="1" parent="1">
          <mxGeometry x="490" y="230" width="150" height="80" as="geometry" />
        </mxCell>
        <mxCell id="YA0dYZ4zkgPmEPCqmKWG-4" value="XDR&lt;div&gt;For Cloud&lt;/div&gt;" style="rounded=1;whiteSpace=wrap;html=1;sketch=1;curveFitting=1;jiggle=2;fontFamily=Gloria Hallelujah;fontSource=https%3A%2F%2Ffonts.googleapis.com%2Fcss%3Ffamily%3DGloria%2BHallelujah;fontSize=16;fillColor=#d5e8d4;gradientColor=#97d077;strokeColor=#82b366;fontColor=#000000;" vertex="1" parent="1">
          <mxGeometry x="680" y="230" width="150" height="80" as="geometry" />
        </mxCell>
        <mxCell id="YA0dYZ4zkgPmEPCqmKWG-5" value="CDR" style="rounded=1;whiteSpace=wrap;html=1;sketch=1;curveFitting=1;jiggle=2;fontFamily=Gloria Hallelujah;fontSource=https%3A%2F%2Ffonts.googleapis.com%2Fcss%3Ffamily%3DGloria%2BHallelujah;fontSize=16;fillColor=#d5e8d4;gradientColor=#97d077;strokeColor=#82b366;fontColor=#000000;" vertex="1" parent="1">
          <mxGeometry x="680" y="450" width="150" height="80" as="geometry" />
        </mxCell>
        <mxCell id="YA0dYZ4zkgPmEPCqmKWG-6" value="" style="endArrow=none;dashed=1;html=1;rounded=0;" edge="1" parent="1">
          <mxGeometry width="50" height="50" relative="1" as="geometry">
            <mxPoint x="110" y="420" as="sourcePoint" />
            <mxPoint x="860" y="420" as="targetPoint" />
          </mxGeometry>
        </mxCell>
        <mxCell id="YA0dYZ4zkgPmEPCqmKWG-7" value="Cortex" style="text;html=1;align=center;verticalAlign=middle;whiteSpace=wrap;rounded=0;fontFamily=Gloria Hallelujah;fontSource=https%3A%2F%2Ffonts.googleapis.com%2Fcss%3Ffamily%3DGloria%2BHallelujah;fontSize=20;" vertex="1" parent="1">
          <mxGeometry x="440" y="130" width="60" height="30" as="geometry" />
        </mxCell>
        <mxCell id="YA0dYZ4zkgPmEPCqmKWG-8" value="prisma Cloud" style="text;html=1;align=center;verticalAlign=middle;whiteSpace=wrap;rounded=0;fontFamily=Gloria Hallelujah;fontSource=https%3A%2F%2Ffonts.googleapis.com%2Fcss%3Ffamily%3DGloria%2BHallelujah;fontSize=20;" vertex="1" parent="1">
          <mxGeometry x="425" y="495" width="60" height="30" as="geometry" />
        </mxCell>
        <mxCell id="YA0dYZ4zkgPmEPCqmKWG-9" value="CSPM" style="rounded=1;whiteSpace=wrap;html=1;sketch=1;curveFitting=1;jiggle=2;fontFamily=Gloria Hallelujah;fontSource=https%3A%2F%2Ffonts.googleapis.com%2Fcss%3Ffamily%3DGloria%2BHallelujah;fontSize=16;fillColor=#dae8fc;strokeColor=#6c8ebf;gradientColor=#7ea6e0;fontColor=#000000;" vertex="1" parent="1">
          <mxGeometry x="335" y="590" width="150" height="80" as="geometry" />
        </mxCell>
        <mxCell id="YA0dYZ4zkgPmEPCqmKWG-10" value="CAS" style="rounded=1;whiteSpace=wrap;html=1;sketch=1;curveFitting=1;jiggle=2;fontFamily=Gloria Hallelujah;fontSource=https%3A%2F%2Ffonts.googleapis.com%2Fcss%3Ffamily%3DGloria%2BHallelujah;fontSize=16;fillColor=#dae8fc;strokeColor=#6c8ebf;gradientColor=#7ea6e0;fontColor=#000000;" vertex="1" parent="1">
          <mxGeometry x="510" y="590" width="150" height="80" as="geometry" />
        </mxCell>
        <mxCell id="YA0dYZ4zkgPmEPCqmKWG-11" value="CNAPP" style="rounded=1;whiteSpace=wrap;html=1;sketch=1;curveFitting=1;jiggle=2;fontFamily=Gloria Hallelujah;fontSource=https%3A%2F%2Ffonts.googleapis.com%2Fcss%3Ffamily%3DGloria%2BHallelujah;fontSize=16;fillColor=#dae8fc;strokeColor=#6c8ebf;gradientColor=#7ea6e0;fontColor=#000000;" vertex="1" parent="1">
          <mxGeometry x="160" y="590" width="150" height="80" as="geometry" />
        </mxCell>
        <mxCell id="YA0dYZ4zkgPmEPCqmKWG-12" value="VM" style="whiteSpace=wrap;html=1;aspect=fixed;sketch=1;curveFitting=1;jiggle=2;fontFamily=Gloria Hallelujah;fontSource=https%3A%2F%2Ffonts.googleapis.com%2Fcss%3Ffamily%3DGloria%2BHallelujah;" vertex="1" parent="1">
          <mxGeometry x="264" y="330" width="40" height="40" as="geometry" />
        </mxCell>
        <mxCell id="YA0dYZ4zkgPmEPCqmKWG-13" value="VM" style="whiteSpace=wrap;html=1;aspect=fixed;sketch=1;curveFitting=1;jiggle=2;fontFamily=Gloria Hallelujah;fontSource=https%3A%2F%2Ffonts.googleapis.com%2Fcss%3Ffamily%3DGloria%2BHallelujah;" vertex="1" parent="1">
          <mxGeometry x="274" y="340" width="40" height="40" as="geometry" />
        </mxCell>
        <mxCell id="YA0dYZ4zkgPmEPCqmKWG-14" value="VM" style="whiteSpace=wrap;html=1;aspect=fixed;sketch=1;curveFitting=1;jiggle=2;fontFamily=Gloria Hallelujah;fontSource=https%3A%2F%2Ffonts.googleapis.com%2Fcss%3Ffamily%3DGloria%2BHallelujah;" vertex="1" parent="1">
          <mxGeometry x="284" y="350" width="40" height="40" as="geometry" />
        </mxCell>
        <mxCell id="YA0dYZ4zkgPmEPCqmKWG-15" value="VM" style="whiteSpace=wrap;html=1;aspect=fixed;sketch=1;curveFitting=1;jiggle=2;fontFamily=Gloria Hallelujah;fontSource=https%3A%2F%2Ffonts.googleapis.com%2Fcss%3Ffamily%3DGloria%2BHallelujah;" vertex="1" parent="1">
          <mxGeometry x="294" y="360" width="40" height="40" as="geometry" />
        </mxCell>
        <mxCell id="YA0dYZ4zkgPmEPCqmKWG-16" value="" style="image;html=1;image=img/lib/clip_art/networking/Firewall_02_128x128.png" vertex="1" parent="1">
          <mxGeometry x="490" y="325" width="70" height="70" as="geometry" />
        </mxCell>
        <mxCell id="YA0dYZ4zkgPmEPCqmKWG-17" value="" style="image;aspect=fixed;html=1;points=[];align=center;fontSize=12;image=img/lib/azure2/identity/Azure_Active_Directory.svg;" vertex="1" parent="1">
          <mxGeometry x="570" y="328" width="70" height="64" as="geometry" />
        </mxCell>
        <mxCell id="YA0dYZ4zkgPmEPCqmKWG-28" value="Simpler&amp;nbsp;" style="text;html=1;align=center;verticalAlign=middle;whiteSpace=wrap;rounded=0;fontFamily=Gloria Hallelujah;fontSource=https%3A%2F%2Ffonts.googleapis.com%2Fcss%3Ffamily%3DGloria%2BHallelujah;fontSize=20;" vertex="1" parent="1">
          <mxGeometry x="130" y="200" width="60" height="30" as="geometry" />
        </mxCell>
        <mxCell id="YA0dYZ4zkgPmEPCqmKWG-29" value="Analytic（IR）" style="text;html=1;align=center;verticalAlign=middle;whiteSpace=wrap;rounded=0;fontFamily=Gloria Hallelujah;fontSource=https%3A%2F%2Ffonts.googleapis.com%2Fcss%3Ffamily%3DGloria%2BHallelujah;fontSize=20;" vertex="1" parent="1">
          <mxGeometry x="304" y="200" width="146" height="30" as="geometry" />
        </mxCell>
        <mxCell id="YA0dYZ4zkgPmEPCqmKWG-30" value="Public&lt;div&gt;Cloud&lt;/div&gt;" style="ellipse;shape=cloud;whiteSpace=wrap;html=1;fontFamily=Gloria Hallelujah;fontSource=https%3A%2F%2Ffonts.googleapis.com%2Fcss%3Ffamily%3DGloria%2BHallelujah;fontSize=20;" vertex="1" parent="1">
          <mxGeometry x="254" y="710" width="120" height="80" as="geometry" />
        </mxCell>
        <mxCell id="YA0dYZ4zkgPmEPCqmKWG-32" style="edgeStyle=orthogonalEdgeStyle;rounded=0;orthogonalLoop=1;jettySize=auto;html=1;exitX=0.5;exitY=1;exitDx=0;exitDy=0;entryX=0.625;entryY=0.2;entryDx=0;entryDy=0;entryPerimeter=0;" edge="1" parent="1" source="YA0dYZ4zkgPmEPCqmKWG-9" target="YA0dYZ4zkgPmEPCqmKWG-30">
          <mxGeometry relative="1" as="geometry" />
        </mxCell>
        <mxCell id="YA0dYZ4zkgPmEPCqmKWG-33" style="edgeStyle=orthogonalEdgeStyle;rounded=0;orthogonalLoop=1;jettySize=auto;html=1;exitX=0.75;exitY=0;exitDx=0;exitDy=0;entryX=0.2;entryY=1;entryDx=0;entryDy=0;entryPerimeter=0;flowAnimation=1;strokeWidth=2;strokeColor=#CC00CC;" edge="1" parent="1" source="YA0dYZ4zkgPmEPCqmKWG-9" target="YA0dYZ4zkgPmEPCqmKWG-5">
          <mxGeometry relative="1" as="geometry" />
        </mxCell>
        <mxCell id="YA0dYZ4zkgPmEPCqmKWG-35" value="VM" style="whiteSpace=wrap;html=1;aspect=fixed;sketch=1;curveFitting=1;jiggle=2;fontFamily=Gloria Hallelujah;fontSource=https%3A%2F%2Ffonts.googleapis.com%2Fcss%3Ffamily%3DGloria%2BHallelujah;" vertex="1" parent="1">
          <mxGeometry x="700" y="330" width="40" height="40" as="geometry" />
        </mxCell>
        <mxCell id="YA0dYZ4zkgPmEPCqmKWG-36" value="k8s" style="whiteSpace=wrap;html=1;aspect=fixed;sketch=1;curveFitting=1;jiggle=2;fontFamily=Gloria Hallelujah;fontSource=https%3A%2F%2Ffonts.googleapis.com%2Fcss%3Ffamily%3DGloria%2BHallelujah;" vertex="1" parent="1">
          <mxGeometry x="760" y="330" width="40" height="40" as="geometry" />
        </mxCell>
        <mxCell id="YA0dYZ4zkgPmEPCqmKWG-37" value="k8s" style="whiteSpace=wrap;html=1;aspect=fixed;sketch=1;curveFitting=1;jiggle=2;fontFamily=Gloria Hallelujah;fontSource=https%3A%2F%2Ffonts.googleapis.com%2Fcss%3Ffamily%3DGloria%2BHallelujah;" vertex="1" parent="1">
          <mxGeometry x="770" y="340" width="40" height="40" as="geometry" />
        </mxCell>
        <mxCell id="YA0dYZ4zkgPmEPCqmKWG-38" value="k8s" style="whiteSpace=wrap;html=1;aspect=fixed;sketch=1;curveFitting=1;jiggle=2;fontFamily=Gloria Hallelujah;fontSource=https%3A%2F%2Ffonts.googleapis.com%2Fcss%3Ffamily%3DGloria%2BHallelujah;" vertex="1" parent="1">
          <mxGeometry x="780" y="350" width="40" height="40" as="geometry" />
        </mxCell>
        <mxCell id="YA0dYZ4zkgPmEPCqmKWG-39" value="k8s" style="whiteSpace=wrap;html=1;aspect=fixed;sketch=1;curveFitting=1;jiggle=2;fontFamily=Gloria Hallelujah;fontSource=https%3A%2F%2Ffonts.googleapis.com%2Fcss%3Ffamily%3DGloria%2BHallelujah;" vertex="1" parent="1">
          <mxGeometry x="790" y="360" width="40" height="40" as="geometry" />
        </mxCell>
        <mxCell id="YA0dYZ4zkgPmEPCqmKWG-40" value="Public&lt;div&gt;Cloud&lt;/div&gt;" style="ellipse;shape=cloud;whiteSpace=wrap;html=1;fontFamily=Gloria Hallelujah;fontSource=https%3A%2F%2Ffonts.googleapis.com%2Fcss%3Ffamily%3DGloria%2BHallelujah;fontSize=20;" vertex="1" parent="1">
          <mxGeometry x="810" y="315" width="120" height="80" as="geometry" />
        </mxCell>
      </root>
    </mxGraphModel>
  </diagram>
</mxfile>
